<svg id="Layer_1" data-name="Layer 1" xmlns="http://www.w3.org/2000/svg" viewBox="0 0 333.16 326.98"><defs><style>.cls-1{fill:#f2a26f;}.cls-1,.cls-5{stroke:#f2a26f;stroke-miterlimit:10;}.cls-2{fill:#e28f60;}.cls-3{fill:#b76a29;}.cls-4{fill:#339651;}.cls-5{fill:none;stroke-width:17.42px;}</style></defs><title>Carrot frame</title><path class="cls-1" d="M172.6,264.48a14.17,14.17,0,0,1-9.65,4.18,12.65,12.65,0,0,1-13-10.93L131.29,127.91a20.76,20.76,0,0,1,4.88-16.37,21.07,21.07,0,0,1,15.48-7.48l30.89-.78A19,19,0,0,1,197.65,110a19.31,19.31,0,0,1,4.06,16.15L176.54,257.06A14.29,14.29,0,0,1,172.6,264.48Z"/><path class="cls-2" d="M167.34,103.66l15.19-.38A19,19,0,0,1,197.65,110a19.31,19.31,0,0,1,4.06,16.15L176.54,257.06a14.33,14.33,0,0,1-13.59,11.6Z"/><path class="cls-3" d="M168.4,172.3a3.5,3.5,0,0,1-2.39,1l-25.28.64a3.14,3.14,0,0,1-3.26-3.26,3.55,3.55,0,0,1,3.42-3.42l25.28-.64a3.14,3.14,0,0,1,3.26,3.26A3.5,3.5,0,0,1,168.4,172.3Z"/><path class="cls-3" d="M163.45,194.4a3.5,3.5,0,0,1-2.39,1l-16.49.41a3.14,3.14,0,0,1-3.26-3.26,3.55,3.55,0,0,1,3.42-3.42l16.49-.41a3.14,3.14,0,0,1,3.26,3.26A3.5,3.5,0,0,1,163.45,194.4Z"/><path class="cls-3" d="M158.5,216.5a3.5,3.5,0,0,1-2.39,1l-7.69.19a3.14,3.14,0,0,1-3.26-3.26,3.55,3.55,0,0,1,3.42-3.42l7.69-.19a3.14,3.14,0,0,1,3.26,3.26A3.5,3.5,0,0,1,158.5,216.5Z"/><path class="cls-4" d="M197.89,81.77a3.51,3.51,0,0,1-2.13,1c-.92.1-21.2,2.54-25.48,24.69a3.55,3.55,0,0,1-3.64,2.86,3.14,3.14,0,0,1-3-3.25l1.14-45.35a3.55,3.55,0,0,1,3.42-3.42,3.14,3.14,0,0,1,3.26,3.26l-.72,28.79c9.59-12.54,24.47-14.2,24.67-14.22a3.15,3.15,0,0,1,3.5,3A3.5,3.5,0,0,1,197.89,81.77Z"/><path class="cls-4" d="M169.3,109.31a3.52,3.52,0,0,1-2.11,1,3.14,3.14,0,0,1-3.5-2.68c-3.18-22-23.42-23.39-24.28-23.44a3.15,3.15,0,0,1-3-3.51,3.54,3.54,0,0,1,3.65-3.16c.2,0,15,.92,24,13l.72-28.79a3.55,3.55,0,0,1,3.42-3.42,3.14,3.14,0,0,1,3.26,3.26l-1.14,45.35A3.51,3.51,0,0,1,169.3,109.31Z"/><rect class="cls-5" x="25.59" y="26.38" width="281.99" height="281.99"/></svg>